<?xml version="1.0" encoding="utf-8"?>
<!-- Generator: Adobe Illustrator 19.2.1, SVG Export Plug-In . SVG Version: 6.00 Build 0)  -->
<svg version="1.1" id="Layer_1" xmlns="http://www.w3.org/2000/svg" xmlns:xlink="http://www.w3.org/1999/xlink" x="0px" y="0px"
	 viewBox="0 0 640 480" style="enable-background:new 0 0 640 480;" xml:space="preserve">
<style type="text/css">
	.st0{opacity:0.4;}
	.st1{fill:#333333;}
	.st2{fill:#333333;stroke:#555555;stroke-width:0.25;stroke-miterlimit:10;}
	.st3{fill:#007D86;}
	.st4{fill:#00A790;}
	.st5{fill:#00B6B8;}
	.st6{fill:#FFFFFF;}
	.st7{fill:#A8CE38;}
</style>
<g class="st0">
	<path class="st1" d="M181.6,208.1c-16.7,4-34.5,5.1-50.7,3.6c-4.5-0.4-10.8-0.9-10.1-5.1c0.3-1.8,2.1-1.6,3.3-1.4
		c6.9,0.9,12.2,1.2,18.4,0.9c23.1-1.3,39.4-7.9,39.4-7.9s4.2-67.6,5.9-96.2c0.4-6.2,2.5-11.7,17.5-10.8c11.5,0.7,14.2,4,13.9,16.3
		c-0.6,23.3-3.7,73.6-3.6,74.9c52.2-27.4,67.6-62.8,72-82.1c4.3-18.8,0.6-36.1-17.1-44.5c-17.6-8.3-35.6-8.5-54.2-3.9
		c-23.8,5.9-46.1,17.6-63.2,35.1c-13.1,13.4-21,25.6-27,43.4c-0.7,2.1-2.3,4.8-4.1,5.5c-5.7,2.1-6.8,2.1-5.5-3.8
		c6.6-21.1,18.4-39.8,27.9-49c25.9-26.2,57.2-41.5,94.1-42.3c24.8-0.5,48.3,3.2,64.9,22.3c11,12.7,11.1,33.6,6,48.9
		c-11.3,34.1-36.7,57.2-44.7,63.8c-13,10.8-28,18.7-43.6,25.2c-1.7,0.7-6.2,1.9-6.2,1.9s-1.4,49.5-2.9,68.1
		c-0.6,7.6-6.9,7.3-16.3,9.3c-6.4,1.3-15.5,1.5-16.4-3.9C177.4,267.4,180.8,235.2,181.6,208.1z"/>
</g>
<g class="st0">
	<path class="st1" d="M527.6,252.4c-0.5,0.5-1.2,0.7-1.8,0.8c-1.3,0.2-2.6-0.1-3.8-0.3c-25-4.6-49.4-0.5-73.2,6.2
		c-42.1,12.4-53.5,19.6-53.5,19.6s0.8,8.3,0.7,11.4c-2.2,58.1-25.1,90.2-34.3,103.4c-35.9,44.7-74.9,42.4-88.1,37.1
		c-8.7-3-18-14.9-18.2-26.1c-0.3-14,5.1-26,13-37.2c16.1-23.1,37-41.2,60.1-56.7c14.1-9.5,45.1-27.9,48.7-30.7
		c0.5-5.6,0.9-21.3-6.8-23.8c-8.1-2.7-16-0.6-23.1,4.2c-1.7,1.2-3.5,3.2-5.2,3.2c-3.7,0-8-1.6-10.8-3.5c-3.3-2.2-2.6-4.9-1.7-7.4
		c1.8-4.8,4.8-9.3,8-13.5c10.9-14.5,37.3-47.8,29.8-52.9c-5.6-3.8-17.8,2.9-24.5,9.4c-10.6,8.6-13.8,14.5-20.7,24.1
		c-1.7,2.3-2.3,4-4,4.2c-1.2,0.1-2.7-0.8-2.7-2.3c0-2.3,4.5-7.3,6.9-10.5c8.6-11.4,17.2-20.3,30.2-27.1c3.2-1.7,7.1-2.6,10.8-3
		c14.8-1.4,21.7,9.5,17.8,25.5c-3.3,13.4-10.4,24.9-23.4,41.4c19.6-3.1,31,2.2,36.1,24.6c13.5-4.7,27.6-10.4,41.3-14.5
		c27.6-8.3,54.3-14,83.4-10.9c3,0.3,5.3,0.5,7.9,1.4c0.7,0.2,1.8,0.6,2.1,1.3C528.7,250.1,528.3,251.8,527.6,252.4z M376.3,287.3
		c-3.8,1.9-8.2,4.9-10.4,6.2c-23.8,14.3-45.5,30.1-66.3,48.8c-10.9,10.7-21.5,22.4-29.4,36.6c-6.2,11.1-11.3,20.6-5.2,32.6
		c3.4,6.8,13,8.5,19.7,6.6c23.8-6.7,41.8-21.8,56.2-41.9C356,355.2,374.7,310,376.3,287.3z"/>
</g>
<g class="st0">
	<path class="st1" d="M279.2,267.1c-13.5,7.1-29.3,3.2-35.6-11.3c-5.9-13.6-5.3-27.1,0.4-40.5c2.3-5.4,4.7-11,7.9-15.9
		c2.2-3.4,5.7-7.5,9.7-10.6c8.5-6.6,16.3-8.3,25.7-8.4c10.3-0.2,16.7,6.6,17.8,13.8c0.7,4.8,0.5,10.2-0.2,13.1
		c-0.4,1.7-0.7,3.4-2.6,2.9c-0.9-0.2-1.5-0.5-1.6-1.7c-0.2-1,0-2.9,0-3.7c0.4-8.2-0.5-18.6-12.5-18.4c-7.3,0.1-25.1,17.6-28.5,45.7
		c-2.7,22.1,4.5,31,12.6,30.9c9.8-0.2,15.8-12,18.6-20.1c1.6-4.7,2.6-17.2,3.4-22.2c0.8-5.1,4.6-4.6,8-4.6c3.5-0.1,4.8,2,4.7,5.4
		c-0.5,14.3-0.7,34-2,47c-0.3,2.3-3.6,1.6-6.5,1.7c-2,0.1-3.7,0.5-5.4-0.8c-1.8-1.3-0.8-16.9-0.8-16.9S288.2,262.3,279.2,267.1z"/>
</g>
<g>
	<g class="st0">
		<path class="st2" d="M181.5,291.7c1.8,0,3.1,0.5,4,1.5c0.9,1,1.4,2.4,1.4,4.4c0,2-0.5,3.4-1.4,4.4c-0.9,1-2.3,1.5-4,1.5h-4.1
			v-11.8H181.5z M180.9,302.5c0.8,0,1.6-0.1,2.2-0.3c0.6-0.2,1.1-0.5,1.5-0.9c0.4-0.4,0.7-0.9,0.9-1.5c0.2-0.6,0.3-1.4,0.3-2.3
			c0-0.9-0.1-1.6-0.3-2.3c-0.2-0.6-0.5-1.1-0.9-1.5c-0.4-0.4-0.9-0.7-1.5-0.9c-0.6-0.2-1.3-0.3-2.2-0.3h-2.4v9.8H180.9z"/>
		<path class="st2" d="M199.3,295.3c0.2-0.7,0.6-1.4,1-2s1-1,1.7-1.4c0.7-0.3,1.5-0.5,2.4-0.5s1.7,0.2,2.4,0.5
			c0.7,0.3,1.3,0.8,1.7,1.4s0.8,1.2,1,2c0.2,0.7,0.3,1.5,0.3,2.3s-0.1,1.6-0.3,2.3c-0.2,0.7-0.6,1.4-1,1.9c-0.5,0.6-1,1-1.7,1.3
			c-0.7,0.3-1.5,0.5-2.4,0.5s-1.7-0.2-2.4-0.5c-0.7-0.3-1.3-0.8-1.7-1.3c-0.5-0.6-0.8-1.2-1-1.9s-0.3-1.5-0.3-2.3
			S199,296,199.3,295.3z M200.3,299.5c0.2,0.6,0.4,1.2,0.8,1.7c0.4,0.5,0.8,0.9,1.4,1.2c0.6,0.3,1.2,0.4,2,0.4c0.8,0,1.4-0.1,2-0.4
			c0.6-0.3,1-0.7,1.4-1.2s0.6-1,0.8-1.7c0.2-0.6,0.3-1.2,0.3-1.9c0-0.6-0.1-1.3-0.3-1.9c-0.2-0.6-0.4-1.2-0.8-1.7s-0.8-0.9-1.4-1.2
			c-0.6-0.3-1.2-0.4-2-0.4c-0.8,0-1.4,0.1-2,0.4c-0.6,0.3-1,0.7-1.4,1.2c-0.4,0.5-0.6,1-0.8,1.7c-0.2,0.6-0.3,1.2-0.3,1.9
			C200,298.3,200.1,298.9,200.3,299.5z"/>
		<path class="st2" d="M230.7,294.1c-0.2-0.4-0.5-0.7-0.8-0.9s-0.7-0.4-1.1-0.6s-0.8-0.2-1.2-0.2c-0.8,0-1.4,0.1-2,0.4
			c-0.6,0.3-1,0.7-1.4,1.2c-0.4,0.5-0.6,1-0.8,1.7c-0.2,0.6-0.3,1.2-0.3,1.9c0,0.6,0.1,1.3,0.3,1.9s0.4,1.2,0.8,1.7
			c0.4,0.5,0.8,0.9,1.4,1.2c0.6,0.3,1.2,0.4,2,0.4c0.5,0,1-0.1,1.5-0.3c0.4-0.2,0.8-0.5,1.1-0.8c0.3-0.3,0.6-0.7,0.8-1.2
			c0.2-0.5,0.3-0.9,0.4-1.5h1.1c-0.1,0.7-0.2,1.4-0.5,2c-0.3,0.6-0.6,1.1-1,1.5s-0.9,0.7-1.5,0.9s-1.2,0.3-1.9,0.3
			c-0.9,0-1.7-0.2-2.4-0.5c-0.7-0.3-1.3-0.8-1.7-1.3c-0.5-0.6-0.8-1.2-1-1.9s-0.3-1.5-0.3-2.3s0.1-1.6,0.3-2.3s0.6-1.4,1-2
			s1-1,1.7-1.4c0.7-0.3,1.5-0.5,2.4-0.5c0.6,0,1.1,0.1,1.6,0.2s1,0.4,1.4,0.7c0.4,0.3,0.8,0.7,1.1,1.2c0.3,0.5,0.5,1,0.6,1.6h-1.1
			C231.1,294.9,230.9,294.4,230.7,294.1z"/>
		<path class="st2" d="M253.1,291.7v1H249v10.8h-1.1v-10.8h-4.1v-1H253.1z"/>
		<path class="st2" d="M264.8,295.3c0.2-0.7,0.6-1.4,1-2s1-1,1.7-1.4c0.7-0.3,1.5-0.5,2.4-0.5s1.7,0.2,2.4,0.5
			c0.7,0.3,1.3,0.8,1.7,1.4s0.8,1.2,1,2c0.2,0.7,0.3,1.5,0.3,2.3s-0.1,1.6-0.3,2.3c-0.2,0.7-0.6,1.4-1,1.9c-0.5,0.6-1,1-1.7,1.3
			c-0.7,0.3-1.5,0.5-2.4,0.5s-1.7-0.2-2.4-0.5c-0.7-0.3-1.3-0.8-1.7-1.3c-0.5-0.6-0.8-1.2-1-1.9s-0.3-1.5-0.3-2.3
			S264.5,296,264.8,295.3z M265.8,299.5c0.2,0.6,0.4,1.2,0.8,1.7c0.4,0.5,0.8,0.9,1.4,1.2c0.6,0.3,1.2,0.4,2,0.4
			c0.8,0,1.4-0.1,2-0.4c0.6-0.3,1-0.7,1.4-1.2s0.6-1,0.8-1.7c0.2-0.6,0.3-1.2,0.3-1.9c0-0.6-0.1-1.3-0.3-1.9
			c-0.2-0.6-0.4-1.2-0.8-1.7s-0.8-0.9-1.4-1.2c-0.6-0.3-1.2-0.4-2-0.4c-0.8,0-1.4,0.1-2,0.4c-0.6,0.3-1,0.7-1.4,1.2
			c-0.4,0.5-0.6,1-0.8,1.7c-0.2,0.6-0.3,1.2-0.3,1.9C265.5,298.3,265.6,298.9,265.8,299.5z"/>
		<path class="st2" d="M293.5,291.7c0.5,0,0.9,0.1,1.4,0.2c0.4,0.1,0.8,0.3,1.1,0.6s0.6,0.6,0.8,1c0.2,0.4,0.3,0.8,0.3,1.4
			c0,0.7-0.2,1.4-0.6,1.9c-0.4,0.5-1,0.9-1.7,1.1v0c0.4,0.1,0.7,0.2,1,0.3c0.3,0.1,0.5,0.3,0.6,0.6s0.3,0.5,0.3,0.8s0.1,0.6,0.1,1
			c0,0.2,0,0.4,0,0.7c0,0.3,0,0.6,0.1,0.9c0,0.3,0.1,0.6,0.2,0.8c0.1,0.3,0.2,0.5,0.3,0.6h-1.2c-0.1-0.1-0.1-0.2-0.2-0.4
			s-0.1-0.3-0.1-0.5c0-0.2,0-0.3,0-0.5c0-0.2,0-0.3,0-0.4c0-0.4-0.1-0.8-0.1-1.2c0-0.4-0.2-0.8-0.3-1.1c-0.2-0.3-0.4-0.6-0.7-0.8
			c-0.3-0.2-0.7-0.3-1.2-0.3h-4.2v5.2h-1.1v-11.8H293.5z M293.4,297.3c0.3,0,0.7-0.1,1-0.2s0.6-0.3,0.8-0.5c0.2-0.2,0.4-0.4,0.6-0.7
			c0.1-0.3,0.2-0.6,0.2-1c0-0.7-0.2-1.3-0.6-1.7c-0.4-0.4-1.1-0.6-1.9-0.6h-4.2v4.6H293.4z"/>
		<path class="st2" d="M314.6,291.7l4.6,11.8H318l-1.4-3.7h-5.4l-1.4,3.7h-1.2l4.7-11.8H314.6z M316.2,298.9l-2.3-6l-2.4,6H316.2z"
			/>
	</g>
</g>
<g class="st0">
	<path class="st1" d="M527.8,140c-1.8,11.3-5.5,21.1-10.2,29.7c-7.8,14-18.2,24.4-27.4,31.6c-2.6,2.3-5.5,4.7-8.6,6.9c0,0,0,0,0,0
		c-1.1,0.6-2.2,1.2-3.4,1.9c-0.5,0.2-1,0.5-1.5,0.7c-1.9,0.9-4,1.9-6.4,3c-0.2,0.1-0.4,0.2-0.4,0.2s1.5-13.4-0.9-26.4
		c-1.1-6.1-3-12-6.2-16.5c-1.5-2-3.2-3.8-5.3-5c-0.2-0.1-0.4-0.2-0.6-0.3c0,0,0.7,1.7,1.5,4.8c1,4,2.1,10.3,1.9,18.5
		c-0.1,7.2-1.3,15.9-4.4,25.7c-2.9,9-7.4,18.9-14.3,29.5c0,0-0.3-0.2-0.7-0.7c-0.1-0.1-0.2-0.2-0.3-0.3c-0.1-0.1-0.2-0.2-0.2-0.2
		c-0.1-0.1-0.1-0.2-0.2-0.2c-0.2-0.2-0.5-0.5-0.8-0.8c-0.3-0.3-0.6-0.6-1-1c-4.2-4.3-11.9-12.7-20.3-23.5c-0.4-0.5-0.8-1-1.1-1.5
		c-0.4-0.5-0.8-1-1.2-1.5c-1.6-2-3.1-4.2-4.7-6.3c-0.4-0.5-0.8-1.1-1.2-1.6c-0.3-0.4-0.6-0.9-0.9-1.3c-0.1-0.1-0.2-0.3-0.3-0.4
		c-0.4-0.6-0.8-1.1-1.2-1.7c-3.1-4.6-6.2-9.3-9.1-14.3c-0.3-0.6-0.7-1.2-1-1.7c-0.1-0.2-0.2-0.3-0.2-0.5c-0.3-0.5-0.6-1-0.9-1.6
		c-0.3-0.6-0.7-1.2-1-1.8c0,0,0-0.1,0-0.1c-0.3-0.6-0.7-1.3-1-1.9c-0.3-0.5-0.5-1-0.8-1.5c-0.1-0.2-0.2-0.3-0.2-0.5c0,0,0,0,0,0
		c-1-1.9-1.9-3.8-2.8-5.8c-0.3-0.7-0.6-1.3-0.9-2c-0.6-1.4-1.2-2.9-1.8-4.3c-0.2-0.4-0.3-0.8-0.5-1.2c-0.6-1.5-1.1-2.9-1.6-4.4
		c-0.2-0.6-0.4-1.3-0.6-1.9c-0.2-0.5-0.3-1.1-0.5-1.6c-0.2-0.6-0.4-1.2-0.5-1.7c-1.2-4-2.1-8-2.7-12c-0.1-0.4-0.1-0.7-0.1-1
		c-0.1-0.4-0.1-0.8-0.2-1.2c0-0.1,0-0.2,0-0.4c-0.1-0.4-0.1-0.8-0.1-1.2c0-0.3-0.1-0.7-0.1-1c0-0.4-0.1-0.7-0.1-1.1
		c0-0.1,0-0.3,0-0.4c0,0,0-0.1,0-0.1c0-0.7-0.1-1.3-0.1-1.9v0c0-0.3,0-0.7,0-1c0-0.5,0-1.1,0-1.6c0-5.8,0.8-11.6,2.6-17.2
		c0,0,0,0,0-0.1c5.9-13.9,31.2-37,89.7-0.9c0,0-26.5,11.9-44.1,4.3c1,0.5,20.5,8.3,39.5,2.6l-0.3-0.2c0,0,3.2-0.2,10.3-4.4
		c0,0,1-0.7,2.6-1.6c3.3-2.1,7.2-4.8,11.8-8.6c11.2-7.1,33.1-2.8,36,17.5c0,0.2,0,0.3,0.1,0.5c0.1,0.5,0.1,1.1,0.2,1.7l0,0v0
		C529.2,131,528.9,135.3,527.8,140z"/>
	<path class="st1" d="M527.8,140c-1.8,11.3-5.5,21.1-10.2,29.7c-10.3,1.8-21.1,2.8-32.1,2.8c-7.7,0-15.3-0.5-22.7-1.4
		c-1.5-2-3.2-3.8-5.3-5c-0.2-0.1-0.4-0.2-0.6-0.3c0,0,0.7,1.7,1.5,4.8c-30.1-4.4-57-16-77.8-32.5c0-0.7-0.1-1.3-0.1-1.9v0
		c0-0.3,0-0.7,0-1c0-0.5,0-1.1,0-1.6c0-5.8,0.8-11.6,2.6-17.2c0,0,0,0,0-0.1c5.9-13.9,31.2-37,89.7-0.9c0,0-26.5,11.9-44.1,4.3
		c1,0.5,20.5,8.3,39.5,2.6l-0.3-0.2c0,0,3.2-0.2,10.3-4.4c0,0,1-0.7,2.6-1.6c3.3-2.1,6.8-5.4,11.8-8.6c11.2-7.1,33.1-2.8,36,17.5
		c0,0.2,0,0.3,0.1,0.5c0.1,0.5,0.1,1.1,0.2,1.7l0,0v0C529.2,131,528.9,135.3,527.8,140z"/>
	<path class="st1" d="M418,109.3c0,0-14.8-6.3-16.5,9.2c0,0,1-11.6,16.5-8.7"/>
	<path class="st1" d="M460.3,189c-0.2,7.2-1.3,15.9-4.4,25.7c-2.9,9-7.4,18.9-14.3,29.6c0,0-0.3-0.2-0.7-0.7
		c-0.1-0.1-0.2-0.2-0.3-0.3c-0.1-0.1-0.2-0.2-0.2-0.2c-0.1-0.1-0.1-0.2-0.2-0.2c-0.2-0.2-0.5-0.5-0.8-0.8c-0.3-0.3-0.6-0.6-1-1
		c-4.2-4.3-11.9-12.7-20.3-23.5c-0.4-0.5-0.8-1-1.1-1.5c-0.4-0.5-0.8-1-1.2-1.5c-1.6-2-3.1-4.1-4.7-6.3c-0.4-0.5-0.8-1.1-1.2-1.6
		c-0.3-0.4-0.6-0.9-0.9-1.3c-0.1-0.1-0.2-0.2-0.3-0.4c-0.4-0.6-0.8-1.1-1.2-1.7c-3.1-4.5-6.2-9.3-9.1-14.3c-0.3-0.6-0.7-1.2-1-1.7
		c-0.1-0.2-0.2-0.3-0.2-0.5c-0.3-0.5-0.6-1-0.9-1.6c-0.3-0.6-0.6-1.2-1-1.8c0,0,0-0.1,0-0.1c-0.3-0.6-0.7-1.3-1-1.9
		c-0.3-0.5-0.5-1-0.8-1.5c-0.1-0.2-0.2-0.3-0.2-0.5c0,0,0,0,0,0C409.2,186.5,432.1,192.6,460.3,189z"/>
	<path class="st1" d="M517.5,169.7c-7.8,14-18.2,24.4-27.4,31.6c-2.6,2.3-5.5,4.7-8.6,6.9c0,0,0,0,0,0c-1.1,0.6-2.2,1.2-3.4,1.9
		c-0.5,0.2-1,0.5-1.5,0.7c-1.9,1-4,1.9-6.4,3c-0.2,0.1-0.4,0.2-0.4,0.2s1.5-13.4-0.9-26.4C483.9,184.7,500.2,179.2,517.5,169.7z"/>
</g>
<g>
	<path class="st3" d="M178.5,208.1c-16.7,4-34.5,5.1-50.7,3.6c-4.5-0.4-10.8-0.9-10.1-5.1c0.3-1.8,2.1-1.6,3.3-1.4
		c6.9,0.9,12.2,1.2,18.4,0.9c23.1-1.3,39.4-7.9,39.4-7.9s4.2-67.6,5.9-96.2c0.4-6.2,2.5-11.7,17.5-10.8c11.5,0.7,14.2,4,13.9,16.3
		c-0.6,23.3-3.7,73.6-3.6,74.9c52.2-27.4,67.6-62.8,72-82.1c4.3-18.8,0.6-36.1-17.1-44.5c-17.6-8.3-35.6-8.5-54.2-3.9
		c-23.8,5.9-46.1,17.6-63.2,35.1c-13.1,13.4-21,25.6-27,43.4c-0.7,2.1-2.3,4.8-4.1,5.5c-5.7,2.1-6.8,2.1-5.5-3.8
		c6.6-21.1,18.4-39.8,27.9-49c25.9-26.2,57.2-41.5,94.1-42.3c24.8-0.5,48.3,3.2,64.9,22.3c11,12.7,11.1,33.6,6,48.9
		c-11.3,34.1-36.7,57.2-44.7,63.8c-13,10.8-28,18.7-43.6,25.2c-1.7,0.7-6.2,1.9-6.2,1.9s-1.4,49.5-2.9,68.1
		c-0.6,7.6-6.9,7.3-16.3,9.3c-6.4,1.3-15.5,1.5-16.4-3.9C174.3,267.4,177.7,235.2,178.5,208.1z"/>
</g>
<g>
	<path class="st3" d="M524.5,252.4c-0.5,0.5-1.2,0.7-1.8,0.8c-1.3,0.2-2.6-0.1-3.8-0.3c-25-4.6-49.4-0.5-73.2,6.2
		c-42.1,12.4-53.5,19.6-53.5,19.6s0.8,8.3,0.7,11.4c-2.2,58.1-25.1,90.2-34.3,103.4c-35.9,44.7-74.9,42.4-88.1,37.1
		c-8.7-3-18-14.9-18.2-26.1c-0.3-14,5.1-26,13-37.2c16.1-23.1,37-41.2,60.1-56.7c14.1-9.5,45.1-27.9,48.7-30.7
		c0.5-5.6,0.9-21.3-6.8-23.8c-8.1-2.7-16-0.6-23.1,4.2c-1.7,1.2-3.5,3.2-5.2,3.2c-3.7,0-8-1.6-10.8-3.5c-3.3-2.2-2.6-4.9-1.7-7.4
		c1.8-4.8,4.8-9.3,8-13.5c10.9-14.5,37.3-47.8,29.8-52.9c-5.6-3.8-17.8,2.9-24.5,9.4c-10.6,8.6-13.8,14.5-20.7,24.1
		c-1.7,2.3-2.3,4-4,4.2c-1.2,0.1-2.7-0.8-2.7-2.3c0-2.3,4.5-7.3,6.9-10.5c8.6-11.4,17.2-20.3,30.2-27.1c3.2-1.7,7.1-2.6,10.8-3
		c14.8-1.4,21.7,9.5,17.8,25.5c-3.3,13.4-10.4,24.9-23.4,41.4c19.6-3.1,31,2.2,36.1,24.6c13.5-4.7,27.6-10.4,41.3-14.5
		c27.6-8.3,54.3-14,83.4-10.9c3,0.3,5.3,0.5,7.9,1.4c0.7,0.2,1.8,0.6,2.1,1.3C525.5,250.1,525.2,251.8,524.5,252.4z M373.2,287.3
		c-3.8,1.9-8.2,4.9-10.4,6.2c-23.8,14.3-45.5,30.1-66.3,48.8C285.6,353,275,364.8,267.1,379c-6.2,11.1-11.3,20.6-5.2,32.6
		c3.4,6.8,13,8.5,19.7,6.6c23.8-6.7,41.8-21.8,56.2-41.9C352.9,355.2,371.6,310,373.2,287.3z"/>
</g>
<g>
	<path class="st3" d="M276.1,267.1c-13.5,7.1-29.3,3.2-35.6-11.3c-5.9-13.6-5.3-27.1,0.4-40.5c2.3-5.4,4.7-11,7.9-15.9
		c2.2-3.4,5.7-7.5,9.7-10.6c8.5-6.6,16.3-8.3,25.7-8.4c10.3-0.2,16.7,6.6,17.8,13.8c0.7,4.8,0.5,10.2-0.2,13.1
		c-0.4,1.7-0.7,3.4-2.6,2.9c-0.9-0.2-1.5-0.5-1.6-1.7c-0.2-1,0-2.9,0-3.7c0.4-8.2-0.5-18.6-12.5-18.4c-7.3,0.1-25.1,17.6-28.5,45.7
		c-2.7,22.1,4.5,31,12.6,30.9c9.8-0.2,15.8-12,18.6-20.1c1.6-4.7,2.6-17.2,3.4-22.2c0.8-5.1,4.6-4.6,8-4.6c3.5-0.1,4.8,2,4.7,5.4
		c-0.5,14.3-0.7,34-2,47c-0.3,2.3-3.6,1.6-6.5,1.7c-2,0.1-3.7,0.5-5.4-0.8c-1.8-1.3-0.8-16.9-0.8-16.9S285.1,262.3,276.1,267.1z"/>
</g>
<g>
	<path class="st4" d="M524.6,140c-1.8,11.3-5.5,21.1-10.2,29.7c-7.8,14-18.2,24.4-27.4,31.6c-2.6,2.3-5.5,4.7-8.6,6.9c0,0,0,0,0,0
		c-1.1,0.6-2.2,1.2-3.4,1.9c-0.5,0.2-1,0.5-1.5,0.7c-1.9,0.9-4,1.9-6.4,3c-0.2,0.1-0.4,0.2-0.4,0.2s1.5-13.4-0.9-26.4
		c-1.1-6.1-3-12-6.2-16.5c-1.5-2-3.2-3.8-5.3-5c-0.2-0.1-0.4-0.2-0.6-0.3c0,0,0.7,1.7,1.5,4.8c1,4,2.1,10.3,1.9,18.5
		c-0.1,7.2-1.3,15.9-4.4,25.7c-2.9,9-7.4,18.9-14.3,29.5c0,0-0.3-0.2-0.7-0.7c-0.1-0.1-0.2-0.2-0.3-0.3c-0.1-0.1-0.2-0.2-0.2-0.2
		c-0.1-0.1-0.1-0.2-0.2-0.2c-0.2-0.2-0.5-0.5-0.8-0.8c-0.3-0.3-0.6-0.6-1-1c-4.2-4.3-11.9-12.7-20.3-23.5c-0.4-0.5-0.8-1-1.1-1.5
		c-0.4-0.5-0.8-1-1.2-1.5c-1.6-2-3.1-4.2-4.7-6.3c-0.4-0.5-0.8-1.1-1.2-1.6c-0.3-0.4-0.6-0.9-0.9-1.3c-0.1-0.1-0.2-0.3-0.3-0.4
		c-0.4-0.6-0.8-1.1-1.2-1.7c-3.1-4.6-6.2-9.3-9.1-14.3c-0.3-0.6-0.7-1.2-1-1.7c-0.1-0.2-0.2-0.3-0.2-0.5c-0.3-0.5-0.6-1-0.9-1.6
		c-0.3-0.6-0.7-1.2-1-1.8c0,0,0-0.1,0-0.1c-0.3-0.6-0.7-1.3-1-1.9c-0.3-0.5-0.5-1-0.8-1.5c-0.1-0.2-0.2-0.3-0.2-0.5c0,0,0,0,0,0
		c-1-1.9-1.9-3.8-2.8-5.8c-0.3-0.7-0.6-1.3-0.9-2c-0.6-1.4-1.2-2.9-1.8-4.3c-0.2-0.4-0.3-0.8-0.5-1.2c-0.6-1.5-1.1-2.9-1.6-4.4
		c-0.2-0.6-0.4-1.3-0.6-1.9c-0.2-0.5-0.3-1.1-0.5-1.6c-0.2-0.6-0.4-1.2-0.5-1.7c-1.2-4-2.1-8-2.7-12c-0.1-0.4-0.1-0.7-0.1-1
		c-0.1-0.4-0.1-0.8-0.2-1.2c0-0.1,0-0.2,0-0.4c-0.1-0.4-0.1-0.8-0.1-1.2c0-0.3-0.1-0.7-0.1-1c0-0.4-0.1-0.7-0.1-1.1
		c0-0.1,0-0.3,0-0.4c0,0,0-0.1,0-0.1c0-0.7-0.1-1.3-0.1-1.9v0c0-0.3,0-0.7,0-1c0-0.5,0-1.1,0-1.6c0-5.8,0.8-11.6,2.6-17.2
		c0,0,0,0,0-0.1c5.9-13.9,31.2-37,89.7-0.9c0,0-26.5,11.9-44.1,4.3c1,0.5,20.5,8.3,39.5,2.6l-0.3-0.2c0,0,3.2-0.2,10.3-4.4
		c0,0,1-0.7,2.6-1.6c3.3-2.1,7.2-4.8,11.8-8.6c11.2-7.1,33.1-2.8,36,17.5c0,0.2,0,0.3,0.1,0.5c0.1,0.5,0.1,1.1,0.2,1.7l0,0v0
		C526.1,131,525.8,135.3,524.6,140z"/>
	<path class="st5" d="M524.6,140c-1.8,11.3-5.5,21.1-10.2,29.7c-10.3,1.8-21.1,2.8-32.1,2.8c-7.7,0-15.3-0.5-22.7-1.4
		c-1.5-2-3.2-3.8-5.3-5c-0.2-0.1-0.4-0.2-0.6-0.3c0,0,0.7,1.7,1.5,4.8c-30.1-4.4-57-16-77.8-32.5c0-0.7-0.1-1.3-0.1-1.9v0
		c0-0.3,0-0.7,0-1c0-0.5,0-1.1,0-1.6c0-5.8,0.8-11.6,2.6-17.2c0,0,0,0,0-0.1c5.9-13.9,31.2-37,89.7-0.9c0,0-26.5,11.9-44.1,4.3
		c1,0.5,20.5,8.3,39.5,2.6l-0.3-0.2c0,0,3.2-0.2,10.3-4.4c0,0,1-0.7,2.6-1.6c3.3-2.1,6.8-5.4,11.8-8.6c11.2-7.1,33.1-2.8,36,17.5
		c0,0.2,0,0.3,0.1,0.5c0.1,0.5,0.1,1.1,0.2,1.7l0,0v0C526.1,131,525.8,135.3,524.6,140z"/>
	<path class="st6" d="M414.8,109.3c0,0-14.8-6.3-16.5,9.2c0,0,1-11.6,16.5-8.7"/>
	<path class="st7" d="M457.2,189c-0.2,7.2-1.3,15.9-4.4,25.7c-2.9,9-7.4,18.9-14.3,29.6c0,0-0.3-0.2-0.7-0.7
		c-0.1-0.1-0.2-0.2-0.3-0.3c-0.1-0.1-0.2-0.2-0.2-0.2c-0.1-0.1-0.1-0.2-0.2-0.2c-0.2-0.2-0.5-0.5-0.8-0.8c-0.3-0.3-0.6-0.6-1-1
		c-4.2-4.3-11.9-12.7-20.3-23.5c-0.4-0.5-0.8-1-1.1-1.5c-0.4-0.5-0.8-1-1.2-1.5c-1.6-2-3.1-4.1-4.7-6.3c-0.4-0.5-0.8-1.1-1.2-1.6
		c-0.3-0.4-0.6-0.9-0.9-1.3c-0.1-0.1-0.2-0.2-0.3-0.4c-0.4-0.6-0.8-1.1-1.2-1.7c-3.1-4.5-6.2-9.3-9.1-14.3c-0.3-0.6-0.7-1.2-1-1.7
		c-0.1-0.2-0.2-0.3-0.2-0.5c-0.3-0.5-0.6-1-0.9-1.6c-0.3-0.6-0.6-1.2-1-1.8c0,0,0-0.1,0-0.1c-0.3-0.6-0.7-1.3-1-1.9
		c-0.3-0.5-0.5-1-0.8-1.5c-0.1-0.2-0.2-0.3-0.2-0.5c0,0,0,0,0,0C406.1,186.5,429,192.6,457.2,189z"/>
	<path class="st7" d="M514.4,169.7c-7.8,14-18.2,24.4-27.4,31.6c-2.6,2.3-5.5,4.7-8.6,6.9c0,0,0,0,0,0c-1.1,0.6-2.2,1.2-3.4,1.9
		c-0.5,0.2-1,0.5-1.5,0.7c-1.9,1-4,1.9-6.4,3c-0.2,0.1-0.4,0.2-0.4,0.2s1.5-13.4-0.9-26.4C480.8,184.7,497,179.2,514.4,169.7z"/>
</g>
</svg>
